<svg width="24" height="24" viewBox="0 0 24 24" fill="none" xmlns="http://www.w3.org/2000/svg">
<path d="M21.32 5.78H17.96V3.68C17.96 2.75338 17.2066 2 16.28 2H7.88C6.95337 2 6.2 2.75338 6.2 3.68V5.78H2.84C2.37537 5.78 2 6.15538 2 6.62V7.46C2 7.5755 2.0945 7.67 2.21 7.67H3.7955L4.44388 21.3988C4.48588 22.2939 5.22613 23 6.12125 23H18.0387C18.9365 23 19.6741 22.2965 19.7161 21.3988L20.3645 7.67H21.95C22.0655 7.67 22.16 7.5755 22.16 7.46V6.62C22.16 6.15538 21.7846 5.78 21.32 5.78ZM8.09 3.89H16.07V5.78H8.09V3.89ZM17.8366 21.11H6.32338L5.68813 7.67H18.4719L17.8366 21.11Z" fill="#4193FB"/>
</svg>
