<svg width="24" height="24" viewBox="0 0 24 24" fill="none" xmlns="http://www.w3.org/2000/svg">
<path d="M16.064 8.31561C16.064 8.21249 15.9797 8.12811 15.8765 8.12811L14.3297 8.13514L12 10.9125L9.67263 8.13749L8.12341 8.13046C8.02029 8.13046 7.93591 8.21249 7.93591 8.31796C7.93591 8.36249 7.95232 8.40468 7.98044 8.43983L11.0297 12.0726L7.98044 15.7031C7.95212 15.7375 7.93641 15.7805 7.93591 15.825C7.93591 15.9281 8.02029 16.0125 8.12341 16.0125L9.67263 16.0055L12 13.2281L14.3273 16.0031L15.8742 16.0101C15.9773 16.0101 16.0617 15.9281 16.0617 15.8226C16.0617 15.7781 16.0453 15.7359 16.0172 15.7008L12.9726 12.0703L16.0218 8.43749C16.05 8.40468 16.064 8.36014 16.064 8.31561Z" fill="#4193FB"/>
<path d="M12 1.52344C6.20156 1.52344 1.5 6.225 1.5 12.0234C1.5 17.8219 6.20156 22.5234 12 22.5234C17.7984 22.5234 22.5 17.8219 22.5 12.0234C22.5 6.225 17.7984 1.52344 12 1.52344ZM12 20.7422C7.18594 20.7422 3.28125 16.8375 3.28125 12.0234C3.28125 7.20938 7.18594 3.30469 12 3.30469C16.8141 3.30469 20.7188 7.20938 20.7188 12.0234C20.7188 16.8375 16.8141 20.7422 12 20.7422Z" fill="#4193FB"/>
</svg>
